<?xml version="1.0" encoding="UTF-8" standalone="no"?>
<!-- Created with Inkscape (http://www.inkscape.org/) -->

<svg
   xmlns:dc="http://purl.org/dc/elements/1.1/"
   xmlns:cc="http://creativecommons.org/ns#"
   xmlns:rdf="http://www.w3.org/1999/02/22-rdf-syntax-ns#"
   xmlns:svg="http://www.w3.org/2000/svg"
   xmlns="http://www.w3.org/2000/svg"
   xmlns:xlink="http://www.w3.org/1999/xlink"
   xmlns:sodipodi="http://sodipodi.sourceforge.net/DTD/sodipodi-0.dtd"
   xmlns:inkscape="http://www.inkscape.org/namespaces/inkscape"
   width="1052.3622"
   height="744.09448"
   id="svg2"
   version="1.1"
   inkscape:version="0.92.2 5c3e80d, 2017-08-06"
   sodipodi:docname="background.svg">
  <defs
     id="defs4">
    <linearGradient
       id="linearGradient2987">
      <stop
         style="stop-color:#aaccff;stop-opacity:1"
         offset="0"
         id="stop2989" />
      <stop
         style="stop-color:#ffffff;stop-opacity:1"
         offset="1"
         id="stop2991" />
    </linearGradient>
    <linearGradient
       inkscape:collect="always"
       xlink:href="#linearGradient2987"
       id="linearGradient2993"
       x1="394.28571"
       y1="855.2193"
       x2="397.14285"
       y2="263.79074"
       gradientUnits="userSpaceOnUse"
       gradientTransform="translate(174,108.57143)" />
    <inkscape:perspective
       id="perspective4677"
       inkscape:persp3d-origin="148.5 : 70 : 1"
       inkscape:vp_z="297 : 105 : 1"
       inkscape:vp_y="0 : 1000 : 0"
       inkscape:vp_x="0 : 105 : 1"
       sodipodi:type="inkscape:persp3d" />
    <linearGradient
       id="linearGradient1119"
       inkscape:collect="always">
      <stop
         id="stop1115"
         offset="0"
         style="stop-color:#3771c8;stop-opacity:1;" />
      <stop
         id="stop1117"
         offset="1"
         style="stop-color:#3771c8;stop-opacity:0;" />
    </linearGradient>
    <clipPath
       id="clipPath2129"
       clipPathUnits="userSpaceOnUse">
      <rect
         y="264.17773"
         x="100.73038"
         height="28.068689"
         width="29.426851"
         id="rect2131"
         style="fill:#cccccc;fill-opacity:1;stroke:none;stroke-width:0;stroke-linejoin:miter;stroke-miterlimit:4;stroke-dasharray:none;stroke-opacity:1" />
    </clipPath>
    <clipPath
       id="clipPath229"
       clipPathUnits="userSpaceOnUse">
      <rect
         y="212.16768"
         x="83.871948"
         height="65.945122"
         width="65.625"
         id="rect231"
         style="fill:#000000;fill-opacity:0;stroke:#decd87;stroke-width:0.235;stroke-miterlimit:4;stroke-dasharray:none;stroke-opacity:0.99607843" />
    </clipPath>
    <linearGradient
       gradientUnits="userSpaceOnUse"
       y2="250.98602"
       x2="198.57388"
       y1="267.31021"
       x1="214.82501"
       id="linearGradient1121"
       xlink:href="#linearGradient1119"
       inkscape:collect="always" />
    <clipPath
       clipPathUnits="userSpaceOnUse"
       id="clipPath2129-4">
      <rect
         style="fill:#cccccc;fill-opacity:1;stroke:none;stroke-width:0;stroke-linejoin:miter;stroke-miterlimit:4;stroke-dasharray:none;stroke-opacity:1"
         id="rect2131-8"
         width="29.426851"
         height="28.068689"
         x="100.73038"
         y="264.17773" />
    </clipPath>
    <clipPath
       clipPathUnits="userSpaceOnUse"
       id="clipPath229-3">
      <rect
         style="fill:#000000;fill-opacity:0;stroke:#decd87;stroke-width:0.235;stroke-miterlimit:4;stroke-dasharray:none;stroke-opacity:0.99607843"
         id="rect231-9"
         width="65.625"
         height="65.945122"
         x="83.871948"
         y="212.16768" />
    </clipPath>
  </defs>
  <sodipodi:namedview
     id="base"
     pagecolor="#ffffff"
     bordercolor="#666666"
     borderopacity="1.0"
     inkscape:pageopacity="0.0"
     inkscape:pageshadow="2"
     inkscape:zoom="0.7"
     inkscape:cx="567.56333"
     inkscape:cy="1362.293"
     inkscape:document-units="px"
     inkscape:current-layer="layer1"
     showgrid="false"
     inkscape:window-width="1440"
     inkscape:window-height="855"
     inkscape:window-x="1393"
     inkscape:window-y="0"
     inkscape:window-maximized="0" />
  <metadata
     id="metadata7">
    <rdf:RDF>
      <cc:Work
         rdf:about="">
        <dc:format>image/svg+xml</dc:format>
        <dc:type
           rdf:resource="http://purl.org/dc/dcmitype/StillImage" />
        <dc:title></dc:title>
      </cc:Work>
    </rdf:RDF>
  </metadata>
  <g
     inkscape:label="Layer 1"
     inkscape:groupmode="layer"
     id="layer1"
     transform="translate(0,-308.2677)">
    <rect
       style="fill:url(#linearGradient2993);fill-opacity:1;stroke:none"
       id="rect2985"
       width="800"
       height="600"
       x="176.85715"
       y="363.79074"
       inkscape:export-xdpi="225.78999"
       inkscape:export-ydpi="225.78999" />
    <rect
       y="952.79077"
       x="176.85728"
       height="6"
       width="800"
       id="rect2995"
       style="fill:#483737;fill-opacity:1;stroke:none"
       inkscape:export-xdpi="225.78999"
       inkscape:export-ydpi="225.78999" />
    <rect
       style="fill:#ffcc29;fill-opacity:1;stroke:#ffcc29;stroke-opacity:1"
       id="rect2997"
       width="107.42043"
       height="6"
       x="529.85699"
       y="952.79077"
       inkscape:export-xdpi="225.78999"
       inkscape:export-ydpi="225.78999" />
    <text
       xml:space="preserve"
       style="font-style:normal;font-variant:normal;font-weight:normal;font-stretch:normal;font-size:30.66666603px;line-height:1.25;font-family:'Hiragino Kaku Gothic Std';-inkscape-font-specification:'Hiragino Kaku Gothic Std';letter-spacing:0px;word-spacing:0px;fill:#000000;fill-opacity:1;stroke:none;stroke-width:0.99999994"
       x="1710.228"
       y="68.542465"
       id="text1483"><tspan
         sodipodi:role="line"
         id="tspan1481"
         x="1710.228"
         y="99.362465"
         style="stroke-width:0.99999994" /></text>
    <circle
       style="fill:none;fill-opacity:1;stroke:none;stroke-width:0.64011919;stroke-miterlimit:4;stroke-dasharray:none;stroke-opacity:1"
       id="path1516"
       cx="490.85715"
       cy="1295.8187"
       r="245.34924"
       inkscape:export-xdpi="100"
       inkscape:export-ydpi="100" />
    <text
       xml:space="preserve"
       style="font-style:normal;font-variant:normal;font-weight:normal;font-stretch:normal;font-size:29.94048691px;line-height:1.25;font-family:'PingFang HK';-inkscape-font-specification:'PingFang HK';letter-spacing:0px;word-spacing:0px;fill:#002b00;fill-opacity:1;stroke:none;stroke-width:0.97632027"
       x="1667.6327"
       y="1097.1106"
       id="text2011"
       transform="matrix(1.120608,0,0.12227775,0.89237271,0,0)"><tspan
         sodipodi:role="line"
         id="tspan2009"
         x="1667.6327"
         y="1126.6019"
         style="font-style:normal;font-variant:normal;font-weight:normal;font-stretch:normal;font-size:187.45349121px;font-family:'PingFang HK';-inkscape-font-specification:'PingFang HK';fill:#002b00;stroke-width:0.97632027" /></text>
    <text
       xml:space="preserve"
       style="font-style:normal;font-variant:normal;font-weight:normal;font-stretch:normal;font-size:42.25575638px;line-height:1.25;font-family:Calibri;-inkscape-font-specification:Calibri;letter-spacing:0px;word-spacing:0px;fill:#373e48;fill-opacity:1;stroke:none;stroke-width:1.37790525"
       x="291.12854"
       y="-228.52544"
       id="text4706"
       transform="matrix(1.0688155,0,-0.02315483,0.93561516,0,0)"
       inkscape:export-xdpi="225.78999"
       inkscape:export-ydpi="225.78999"><tspan
         sodipodi:role="line"
         id="tspan4704"
         x="291.12854"
         y="-228.52544"
         style="font-style:normal;font-variant:normal;font-weight:bold;font-stretch:normal;font-family:'Hiragino Kaku Gothic StdN';-inkscape-font-specification:'Hiragino Kaku Gothic StdN Bold';fill:#373e48;stroke-width:1.37790525">LES</tspan></text>
    <path
       inkscape:connector-curvature="0"
       style="opacity:1;fill:#ed3237;fill-opacity:1;stroke:none;stroke-width:22.07671928;stroke-linecap:round;stroke-linejoin:round;stroke-miterlimit:4;stroke-dasharray:none;stroke-opacity:1"
       d="m 428.32457,-228.65885 c 0.35187,1.99801 -0.20107,4.19044 -2.49842,6.66728 l -14.09945,15.20307 c -3.33971,3.46946 -3.25799,8.68082 1.32623,12.91699 l 12.35838,11.83042 c 3.6209,3.6523 8.85335,5.47494 13.20555,0.99473 l 38.61952,-41.64114 c 1.58234,-1.70596 2.39887,-3.78523 2.44256,-5.9718 z"
       id="path4722"
       inkscape:export-xdpi="225.78999"
       inkscape:export-ydpi="225.78999" />
    <path
       inkscape:connector-curvature="0"
       style="fill:#ffaaaa;stroke:none;stroke-width:2.87090015px;stroke-linecap:butt;stroke-linejoin:miter;stroke-opacity:1"
       d="m 430.24094,-277.07146 c -1.97065,-0.13757 -4.09909,0.5658 -7.00271,2.68615 l -13.28266,14.32067 c -2.79602,3.64981 -3.4574,8.04499 1.30919,12.2781 l 13.44511,12.86929 c 1.82902,2.18952 3.68904,4.55576 3.71304,7.28848 h 51.21332 c 0.40977,-2.94475 -0.68617,-6.17976 -3.54614,-9.05307 l -39.79185,-38.09473 c -2.27082,-1.19981 -4.08662,-2.16291 -6.05722,-2.29489 z"
       id="path4724"
       inkscape:export-xdpi="225.78999"
       inkscape:export-ydpi="225.78999" />
    <path
       id="path4726"
       d="m 299.92793,-228.49769 c -0.35187,1.99775 0.20107,4.19044 2.49842,6.6672 l 14.09953,15.20308 c 3.33963,3.46953 3.25795,8.68074 -1.32616,12.91683 l -12.35849,11.83068 c -3.62094,3.65231 -8.85343,5.4748 -13.2056,0.99466 l -38.61944,-41.6411 c -1.5826,-1.70604 -2.39894,-3.78523 -2.44263,-5.97157 z"
       style="opacity:1;fill:#002255;fill-opacity:1;stroke:none;stroke-width:22.07671928;stroke-linecap:round;stroke-linejoin:round;stroke-miterlimit:4;stroke-dasharray:none;stroke-opacity:1"
       inkscape:connector-curvature="0"
       inkscape:export-xdpi="225.78999"
       inkscape:export-ydpi="225.78999" />
    <path
       id="path4728"
       d="m 298.0116,-276.91034 c 1.97076,-0.13682 4.09908,0.56576 7.00271,2.68596 l 13.28265,14.32082 c 2.79606,3.64966 3.45736,8.04503 -1.30919,12.27806 l -13.4451,12.86922 c -1.82903,2.18959 -3.68893,4.55573 -3.71305,7.28866 h -51.21335 c -0.40978,-2.94493 0.68621,-6.17983 3.54614,-9.05329 l 39.79185,-38.09457 c 2.27089,-1.19974 4.0868,-2.16284 6.05722,-2.29486 z"
       style="fill:#0077bd;fill-opacity:1;stroke:none;stroke-width:2.87090015px;stroke-linecap:butt;stroke-linejoin:miter;stroke-opacity:1"
       inkscape:connector-curvature="0"
       inkscape:export-xdpi="225.78999"
       inkscape:export-ydpi="225.78999" />
    <path
       inkscape:connector-curvature="0"
       id="path4734"
       d="m 364.88973,-289.94158 c -1.97903,-0.27591 -4.11277,0.37455 -6.45494,2.80766 l -14.37781,14.93151 c -3.27625,3.53141 -8.4045,3.66048 -12.75678,-0.82095 l -12.13727,-12.06497 c -3.73913,-3.52698 -5.74432,-8.76461 -1.51612,-13.36516 l 39.38033,-40.89895 c 1.61345,-1.67668 3.62506,-2.58947 5.77346,-2.72285 z"
       style="opacity:1;fill:#806600;fill-opacity:1;stroke:none;stroke-width:22.07671928;stroke-linecap:round;stroke-linejoin:round;stroke-miterlimit:4;stroke-dasharray:none;stroke-opacity:1"
       inkscape:export-xdpi="225.78999"
       inkscape:export-ydpi="225.78999" />
    <path
       inkscape:connector-curvature="0"
       id="path4736"
       d="m 413.43924,-293.79866 c 0.21014,1.99517 -0.38922,4.18427 -2.35657,7.21821 l -13.54315,14.0668 c -3.47577,2.98666 -7.77124,3.83717 -12.12794,-0.82889 l -13.20298,-13.1255 c -2.22758,-1.76712 -4.63045,-3.55964 -7.31887,-3.4729 l -2.08335,-51.99016 c 2.87955,-0.53605 6.1053,0.44519 9.04755,3.23184 l 39.08224,38.84541 c 1.2717,2.25676 2.29323,4.06077 2.50322,6.0559 z"
       style="fill:#ffcc29;fill-opacity:1;stroke:none;stroke-width:2.87090015px;stroke-linecap:butt;stroke-linejoin:miter;stroke-opacity:1"
       inkscape:export-xdpi="225.78999"
       inkscape:export-ydpi="225.78999" />
    <path
       id="path4738"
       d="m 366.88468,-163.55452 c -1.96762,0.35112 -4.12365,-0.21921 -6.5534,-2.5615 l -14.91462,-14.37777 c -3.40316,-3.40517 -8.5327,-3.3402 -12.71788,1.30201 l -11.68694,12.51526 c -3.60745,3.66614 -5.41924,8.97585 -1.02486,13.4132 l 40.85087,39.38181 c 1.67396,1.61344 3.71739,2.45053 5.86927,2.50254 z"
       style="opacity:1;fill:#483737;fill-opacity:1;stroke:none;stroke-width:22.07671928;stroke-linecap:round;stroke-linejoin:round;stroke-miterlimit:4;stroke-dasharray:none;stroke-opacity:1"
       inkscape:connector-curvature="0"
       inkscape:export-xdpi="225.78999"
       inkscape:export-ydpi="225.78999" />
    <path
       id="path4740"
       d="m 414.52774,-161.43953 c 0.1372,-2.0019 -0.54157,-4.16648 -2.61936,-7.12411 l -14.04907,-13.54484 c -3.58243,-2.85332 -7.9064,-3.54067 -12.08909,1.28836 l -12.71297,13.61571 c -2.16147,1.84974 -4.49688,3.7321 -7.18665,3.74703 l -0.17915,52.03287 c 2.897,0.42652 6.08481,-0.6756 8.9227,-3.57158 l 37.63246,-40.29638 c 1.18824,-2.30313 2.14292,-4.14444 2.27955,-6.14623 z"
       style="fill:#c8b7b7;stroke:none;stroke-width:2.87090015px;stroke-linecap:butt;stroke-linejoin:miter;stroke-opacity:1"
       inkscape:connector-curvature="0"
       inkscape:export-xdpi="225.78999"
       inkscape:export-ydpi="225.78999" />
    <text
       inkscape:export-ydpi="225.78999"
       inkscape:export-xdpi="225.78999"
       transform="matrix(1.0836386,0,-0.02347596,0.92281689,0,0)"
       id="text4910"
       y="-218.47836"
       x="572.44568"
       style="font-style:normal;font-variant:normal;font-weight:normal;font-stretch:normal;font-size:93.82084656px;line-height:1.25;font-family:Calibri;-inkscape-font-specification:Calibri;letter-spacing:0px;word-spacing:0px;fill:#373e48;fill-opacity:1;stroke:none;stroke-width:3.05937529"
       xml:space="preserve"><tspan
         style="font-style:normal;font-variant:normal;font-weight:bold;font-stretch:normal;font-family:'Hiragino Kaku Gothic StdN';-inkscape-font-specification:'Hiragino Kaku Gothic StdN Bold';fill:#373e48;stroke-width:3.05937529"
         y="-218.47836"
         x="572.44568"
         id="tspan4908"
         sodipodi:role="line">LES</tspan></text>
    <path
       id="path4912"
       d="m 869.91425,-226.96981 c 0.48205,2.69162 -0.2759,5.64525 -3.41971,8.98201 l -19.29853,20.48118 c -4.57112,4.67407 -4.4592,11.69446 1.81526,17.40159 l 16.91555,15.93762 c 4.95605,4.92031 12.11788,7.37579 18.07487,1.33985 l 52.86013,-56.09791 c 2.16586,-2.29844 3.2835,-5.09968 3.34322,-8.04514 z"
       style="opacity:1;fill:#ed3237;fill-opacity:1;stroke:none;stroke-width:29.97833061;stroke-linecap:round;stroke-linejoin:round;stroke-miterlimit:4;stroke-dasharray:none;stroke-opacity:1"
       inkscape:connector-curvature="0" />
    <path
       id="path4914"
       d="m 872.53732,-292.19014 c -2.69741,-0.19389 -5.61048,0.762 -9.58496,3.61868 l -18.18051,19.29244 c -3.82692,4.91698 -4.73227,10.83818 1.79199,16.54084 l 18.4029,17.33719 c 2.50345,2.94973 5.0493,6.13738 5.08218,9.81906 h 70.09776 c 0.56191,-3.96711 -0.93845,-8.32547 -4.85382,-12.19624 l -54.46465,-51.32031 c -3.10813,-1.61707 -5.59359,-2.91387 -8.29074,-3.09166 z"
       style="fill:#ffaaaa;stroke:none;stroke-width:3.89844155px;stroke-linecap:butt;stroke-linejoin:miter;stroke-opacity:1"
       inkscape:connector-curvature="0" />
    <path
       inkscape:connector-curvature="0"
       style="opacity:1;fill:#002255;fill-opacity:1;stroke:none;stroke-width:29.97833061;stroke-linecap:round;stroke-linejoin:round;stroke-miterlimit:4;stroke-dasharray:none;stroke-opacity:1"
       d="m 601.82979,-226.75268 c -0.48204,2.69129 0.27477,5.6451 3.41968,8.98205 l 19.29857,20.48118 c 4.571,4.67407 4.45916,11.69443 -1.81523,17.40117 l -16.91558,15.93786 c -4.95602,4.92049 -12.11796,7.37559 -18.07491,1.3398 l -52.86009,-56.09809 c -2.16613,-2.29826 -3.28354,-5.09926 -3.34322,-8.04473 z"
       id="path4916" />
    <path
       inkscape:connector-curvature="0"
       style="fill:#0077bd;fill-opacity:1;stroke:none;stroke-width:3.89844155px;stroke-linecap:butt;stroke-linejoin:miter;stroke-opacity:1"
       d="m 599.20672,-291.97296 c 2.69742,-0.19389 5.61052,0.76199 9.58492,3.61829 l 18.18044,19.29279 c 3.82715,4.91663 4.73227,10.83821 -1.79199,16.54068 l -18.40278,17.33696 c -2.50349,2.94996 -5.04919,6.13758 -5.08222,9.81929 h -70.09773 c -0.5619,-3.9673 0.93846,-8.32532 4.85371,-12.19642 l 54.46481,-51.32013 c 3.10809,-1.61514 5.59355,-2.91367 8.29069,-3.09146 z"
       id="path4918" />
    <path
       sodipodi:nodetypes="ccccccccccccccc"
       inkscape:connector-curvature="0"
       id="path4940"
       d="m 16.456493,-380.38685 c 12.758608,-2.39021 72.282195,-20.4929 117.184497,46.54972 31.05598,83.35631 -23.14369,118.95515 -57.41171,141.23452 -54.340109,41.86114 -67.4915387,81.65844 -70.4461503,109.059141 l 115.8296703,0.66497 c -8.24089,-37.747241 30.53367,-66.160251 53.62126,-64.699311 13.10978,-0.55688 22.13848,-8.64034 20.64966,-14.67712 -9.36158,-33.45547 14.3966,-15.7197 -1.82653,-32.96727 l 5.21327,-5.12519 c 3.50835,-3.67676 1.86007,-4.73662 -0.0784,-6.49576 -6.79151,-7.66314 -0.40978,-11.65221 9.49718,-17.60561 5.12905,-3.27851 3.27938,-8.69642 -1.80668,-14.50873 L 183.6126,-278.08517 C 177.81509,-428.65931 29.547594,-387.79899 16.460163,-380.38696 Z"
       style="fill:#b3b3b3;fill-opacity:1;stroke:none;stroke-width:5.92090559;stroke-linecap:butt;stroke-linejoin:miter;stroke-miterlimit:4;stroke-dasharray:none;stroke-opacity:1"
       inkscape:export-xdpi="225.78999"
       inkscape:export-ydpi="225.78999" />
    <path
       inkscape:connector-curvature="0"
       id="path4942"
       d="m 14.545836,-331.21512 c 0.350853,1.90012 -0.200164,3.98748 -2.490905,6.34405 l -14.0571633,14.46675 c -3.3295824,3.30153 -3.2481298,8.26038 1.32223748,12.2911 L 11.641537,-286.8559 c 3.609812,3.47562 8.826649,5.20963 13.165716,0.94662 l 38.503624,-39.62396 c 1.577775,-1.62289 2.391712,-3.60189 2.435305,-5.68241 z"
       style="opacity:1;fill:#806600;fill-opacity:1;stroke:none;stroke-width:21.50299644;stroke-linecap:round;stroke-linejoin:round;stroke-miterlimit:4;stroke-dasharray:none;stroke-opacity:1" />
    <path
       inkscape:connector-curvature="0"
       id="path4944"
       d="m 16.456493,-377.2825 c -1.964757,-0.11603 -4.086697,0.53934 -6.9817098,2.55602 l -13.2427201,13.62698 c -2.7875906,3.47282 -3.4471824,7.65535 1.3051125,11.68323 l 13.4047404,12.24583 c 1.823479,2.08346 3.677923,4.33511 3.701942,6.93543 h 51.059623 c 0.40922,-2.80233 -0.683944,-5.88027 -3.535643,-8.61453 l -39.672287,-36.24922 c -2.264002,-1.14206 -4.07441,-2.05795 -6.039058,-2.18374 z"
       style="fill:#ffcc29;fill-opacity:1;stroke:none;stroke-width:2.7962923px;stroke-linecap:butt;stroke-linejoin:miter;stroke-opacity:1" />
    <path
       inkscape:connector-curvature="0"
       style="opacity:1;fill:#ed3237;fill-opacity:1;stroke:none;stroke-width:21.50299644;stroke-linecap:round;stroke-linejoin:round;stroke-miterlimit:4;stroke-dasharray:none;stroke-opacity:1"
       d="m 73.782134,-273.49123 c 0.350853,1.90217 -0.20126,3.98729 -2.490909,6.34432 l -14.057269,14.46652 c -3.329696,3.30142 -3.248077,8.26016 1.322124,12.29102 l 12.321479,11.25744 c 3.609978,3.47554 8.826758,5.20955 13.165883,0.94654 l 38.503678,-39.62369 c 1.57772,-1.62286 2.39166,-3.60197 2.43519,-5.68249 z"
       id="path4946" />
    <path
       inkscape:connector-curvature="0"
       style="fill:#ffaaaa;fill-opacity:1;stroke:none;stroke-width:2.7962923px;stroke-linecap:butt;stroke-linejoin:miter;stroke-opacity:1"
       d="m 75.692734,-319.55849 c -1.964867,-0.11679 -4.086697,0.53824 -6.981762,2.55591 l -13.242834,13.62697 c -2.787424,3.47293 -3.446959,7.6554 1.305165,11.68316 l 13.404745,12.24594 c 1.823641,2.08339 3.678032,4.33515 3.701942,6.93539 h 51.05968 c 0.40866,-2.80214 -0.684,-5.88045 -3.53553,-8.61464 l -39.672514,-36.24907 c -2.263945,-1.1421 -4.074301,-2.0581 -6.038945,-2.18366 z"
       id="path4948" />
    <path
       id="path4950"
       d="m -32.743734,-274.70226 c -0.350854,1.90019 0.200163,3.98729 2.490962,6.34412 l 14.057159,14.46649 c 3.329586,3.30145 3.248077,8.26038 -1.322291,12.29125 l -12.321365,11.2574 c -3.609978,3.47531 -8.826705,5.20977 -13.16583,0.94665 l -38.503729,-39.62441 c -1.577723,-1.62289 -2.391663,-3.60182 -2.435143,-5.68229 z"
       style="opacity:1;fill:#002255;fill-opacity:1;stroke:none;stroke-width:21.50299644;stroke-linecap:round;stroke-linejoin:round;stroke-miterlimit:4;stroke-dasharray:none;stroke-opacity:1"
       inkscape:connector-curvature="0" />
    <path
       id="path4952"
       d="m -34.654335,-320.76952 c 1.964701,-0.11679 4.086751,0.53824 6.981653,2.55575 l 13.242777,13.6272 c 2.787757,3.47282 3.447069,7.65513 -1.305169,11.68309 l -13.404798,12.24578 c -1.823474,2.08354 -3.677809,4.33531 -3.701832,6.93573 h -51.059675 c -0.409221,-2.80233 0.684,-5.88064 3.535419,-8.61475 l 39.672511,-36.2493 c 2.264058,-1.14187 4.074467,-2.05795 6.039114,-2.1835 z"
       style="fill:#2d8ec8;fill-opacity:1;stroke:none;stroke-width:2.7962923px;stroke-linecap:butt;stroke-linejoin:miter;stroke-opacity:1"
       inkscape:connector-curvature="0" />
    <path
       id="path4954"
       d="m 14.545836,-216.97848 c 0.350853,1.90035 -0.200164,3.98736 -2.490905,6.34416 l -14.0571633,14.46664 c -3.3295824,3.30141 -3.2481298,8.26015 1.32223748,12.29125 l 12.32153182,11.25728 c 3.609812,3.47543 8.826649,5.20966 13.165716,0.94776 l 38.503624,-39.62397 c 1.577775,-1.62289 2.391712,-3.6017 2.435305,-5.68229 z"
       style="opacity:1;fill:#483737;fill-opacity:1;stroke:none;stroke-width:21.50299644;stroke-linecap:round;stroke-linejoin:round;stroke-miterlimit:4;stroke-dasharray:none;stroke-opacity:1"
       inkscape:connector-curvature="0" />
    <path
       id="path4956"
       d="m 16.35858,-264.026 c -1.96487,-0.11641 -4.086754,0.5382 -6.9818188,2.55602 l -13.2427239,13.62697 c -2.7876473,3.47297 -3.4470123,7.65536 1.3051691,11.68335 l 13.4046316,12.24556 c 1.823644,2.08369 3.677979,4.33527 3.701998,6.93562 h 51.059619 c 0.409221,-2.80222 -0.68394,-5.88038 -3.535529,-8.61468 l -39.672401,-36.24926 c -2.263998,-1.14198 -4.074297,-2.05791 -6.038945,-2.18358 z"
       style="fill:#c8b7b7;fill-opacity:1;stroke:none;stroke-width:2.7962923px;stroke-linecap:butt;stroke-linejoin:miter;stroke-opacity:1"
       inkscape:connector-curvature="0" />
    <text
       inkscape:export-ydpi="225.78999"
       inkscape:export-xdpi="225.78999"
       transform="matrix(0.66729601,0,-0.01445631,1.4985853,0,0)"
       id="text341"
       y="-134.87364"
       x="480.57626"
       style="font-style:normal;font-variant:normal;font-weight:normal;font-stretch:normal;font-size:5.41064835px;line-height:1.25;font-family:Calibri;-inkscape-font-specification:Calibri;letter-spacing:0px;word-spacing:0px;fill:#373e48;fill-opacity:1;stroke:none;stroke-width:0.1764342"
       xml:space="preserve"><tspan
         style="font-style:normal;font-variant:normal;font-weight:bold;font-stretch:normal;font-family:'Hiragino Kaku Gothic StdN';-inkscape-font-specification:'Hiragino Kaku Gothic StdN Bold';fill:#373e48;stroke-width:0.1764342"
         y="-134.87364"
         x="480.57626"
         id="tspan339"
         sodipodi:role="line">Laboratório de Engenharia  de Software</tspan></text>
    <text
       xml:space="preserve"
       style="font-style:normal;font-variant:normal;font-weight:normal;font-stretch:normal;font-size:13.01620007px;line-height:1.25;font-family:Calibri;-inkscape-font-specification:Calibri;letter-spacing:0px;word-spacing:0px;fill:#373e48;fill-opacity:1;stroke:none;stroke-width:0.42444137"
       x="984.07825"
       y="-111.54415"
       id="text345"
       transform="matrix(0.6460609,0,-0.01399627,1.5478417,0,0)"
       inkscape:export-xdpi="225.78999"
       inkscape:export-ydpi="225.78999"><tspan
         sodipodi:role="line"
         id="tspan343"
         x="984.07825"
         y="-111.54415"
         style="font-style:normal;font-variant:normal;font-weight:bold;font-stretch:normal;font-family:'Hiragino Kaku Gothic StdN';-inkscape-font-specification:'Hiragino Kaku Gothic StdN Bold';fill:#373e48;stroke-width:0.42444137">Laboratório de Engenharia  de Software</tspan></text>
    <text
       inkscape:export-ydpi="225.78999"
       inkscape:export-xdpi="225.78999"
       transform="matrix(1.0688155,0,-0.02315483,0.93561517,0,0)"
       id="text241"
       y="457.17487"
       x="862.72968"
       style="font-style:normal;font-variant:normal;font-weight:normal;font-stretch:normal;font-size:11.17722511px;line-height:1.25;font-family:Calibri;-inkscape-font-specification:Calibri;letter-spacing:0px;word-spacing:0px;fill:#373e48;fill-opacity:1;stroke:none;stroke-width:0.36447474"
       xml:space="preserve"><tspan
         style="font-style:normal;font-variant:normal;font-weight:bold;font-stretch:normal;font-family:'Hiragino Kaku Gothic StdN';-inkscape-font-specification:'Hiragino Kaku Gothic StdN Bold';fill:#373e48;stroke-width:0.36447474"
         y="457.17487"
         x="862.72968"
         id="tspan239"
         sodipodi:role="line">LES</tspan></text>
    <path
       inkscape:export-ydpi="225.78999"
       inkscape:export-xdpi="225.78999"
       id="path243"
       d="m 941.10433,423.8125 c 0.0931,0.5285 -0.0532,1.10843 -0.66086,1.76359 l -3.7295,4.02142 c -0.8834,0.91771 -0.86178,2.29619 0.35081,3.41672 l 3.26896,3.12931 c 0.95777,0.96608 2.34183,1.44819 3.49304,0.26312 l 10.21539,-11.01465 c 0.41856,-0.45125 0.63454,-1.00125 0.64609,-1.57963 z"
       style="opacity:1;fill:#ed3237;fill-opacity:1;stroke:none;stroke-width:5.83959341;stroke-linecap:round;stroke-linejoin:round;stroke-miterlimit:4;stroke-dasharray:none;stroke-opacity:1"
       inkscape:connector-curvature="0" />
    <path
       inkscape:export-ydpi="225.78999"
       inkscape:export-xdpi="225.78999"
       id="path245"
       d="m 941.61124,411.00671 c -0.52126,-0.0364 -1.08427,0.14965 -1.85231,0.71052 l -3.51345,3.78801 c -0.73958,0.96543 -0.91452,2.12801 0.3463,3.24773 l 3.55641,3.4041 c 0.4838,0.57916 0.97581,1.20506 0.98216,1.9279 h 13.54661 c 0.10839,-0.77893 -0.1815,-1.63463 -0.93799,-2.39466 l -10.52549,-10.07657 c -0.60067,-0.31737 -1.08097,-0.57212 -1.60222,-0.60703 z"
       style="fill:#ffaaaa;stroke:none;stroke-width:0.75939226px;stroke-linecap:butt;stroke-linejoin:miter;stroke-opacity:1"
       inkscape:connector-curvature="0" />
    <path
       inkscape:export-ydpi="225.78999"
       inkscape:export-xdpi="225.78999"
       inkscape:connector-curvature="0"
       style="opacity:1;fill:#002255;fill-opacity:1;stroke:none;stroke-width:5.83959341;stroke-linecap:round;stroke-linejoin:round;stroke-miterlimit:4;stroke-dasharray:none;stroke-opacity:1"
       d="m 907.14167,423.85513 c -0.0931,0.52843 0.0532,1.10843 0.66087,1.76356 l 3.72951,4.02143 c 0.88338,0.91774 0.86178,2.29617 -0.35079,3.41667 l -3.26898,3.12938 c -0.95779,0.96609 -2.34186,1.44816 -3.49306,0.2631 l -10.21537,-11.01464 c -0.41862,-0.45127 -0.63455,-1.00124 -0.64611,-1.57955 z"
       id="path247" />
    <path
       inkscape:export-ydpi="225.78999"
       inkscape:export-xdpi="225.78999"
       inkscape:connector-curvature="0"
       style="fill:#0077bd;fill-opacity:1;stroke:none;stroke-width:0.75939226px;stroke-linecap:butt;stroke-linejoin:miter;stroke-opacity:1"
       d="m 906.63477,411.04933 c 0.52129,-0.0362 1.08427,0.14964 1.85232,0.71047 l 3.51344,3.78805 c 0.7396,0.96538 0.91452,2.12802 -0.3463,3.24771 l -3.55641,3.40409 c -0.48381,0.57918 -0.97577,1.20505 -0.98215,1.92795 h -13.54663 c -0.1084,-0.77897 0.18151,-1.63465 0.938,-2.39472 l 10.52549,-10.07653 c 0.60068,-0.31735 1.08101,-0.5721 1.60222,-0.60702 z"
       id="path249" />
    <path
       inkscape:export-ydpi="225.78999"
       inkscape:export-xdpi="225.78999"
       style="opacity:1;fill:#806600;fill-opacity:1;stroke:none;stroke-width:5.83959341;stroke-linecap:round;stroke-linejoin:round;stroke-miterlimit:4;stroke-dasharray:none;stroke-opacity:1"
       d="m 924.32495,407.60239 c -0.52348,-0.073 -1.08788,0.0991 -1.70742,0.74266 l -3.80312,3.94959 c -0.86662,0.9341 -2.22311,0.96824 -3.37434,-0.21716 l -3.21048,-3.19134 c -0.98905,-0.93294 -1.51945,-2.31837 -0.40103,-3.53527 l 10.41663,-10.81833 c 0.42678,-0.44351 0.95888,-0.68496 1.52716,-0.72024 z"
       id="path251"
       inkscape:connector-curvature="0" />
    <path
       inkscape:export-ydpi="225.78999"
       inkscape:export-xdpi="225.78999"
       style="fill:#ffcc29;fill-opacity:1;stroke:none;stroke-width:0.75939226px;stroke-linecap:butt;stroke-linejoin:miter;stroke-opacity:1"
       d="m 937.16696,406.58213 c 0.0556,0.52775 -0.10295,1.1068 -0.62335,1.90932 l -3.58234,3.72086 c -0.91939,0.79001 -2.0556,1.01499 -3.20801,-0.21925 l -3.49237,-3.47188 c -0.58922,-0.46743 -1.22482,-0.94157 -1.93594,-0.91863 l -0.55107,-13.75211 c 0.76168,-0.14179 1.61494,0.11776 2.3932,0.85487 l 10.33779,10.27514 c 0.33637,0.59694 0.60658,1.07414 0.66213,1.60187 z"
       id="path253"
       inkscape:connector-curvature="0" />
    <path
       inkscape:export-ydpi="225.78999"
       inkscape:export-xdpi="225.78999"
       inkscape:connector-curvature="0"
       style="opacity:1;fill:#483737;fill-opacity:1;stroke:none;stroke-width:5.83959341;stroke-linecap:round;stroke-linejoin:round;stroke-miterlimit:4;stroke-dasharray:none;stroke-opacity:1"
       d="m 924.85264,441.03348 c -0.52046,0.0929 -1.09076,-0.058 -1.73346,-0.67755 l -3.94512,-3.80311 c -0.90018,-0.90072 -2.25701,-0.88353 -3.36405,0.3444 l -3.09136,3.31046 c -0.95422,0.96974 -1.43346,2.37423 -0.27109,3.54797 l 10.80562,10.41703 c 0.44278,0.42677 0.9833,0.6482 1.5525,0.66195 z"
       id="path255" />
    <path
       inkscape:export-ydpi="225.78999"
       inkscape:export-xdpi="225.78999"
       inkscape:connector-curvature="0"
       style="fill:#c8b7b7;stroke:none;stroke-width:0.75939226px;stroke-linecap:butt;stroke-linejoin:miter;stroke-opacity:1"
       d="m 937.45488,441.59293 c 0.0363,-0.52953 -0.14325,-1.10209 -0.69285,-1.88443 l -3.71617,-3.58279 c -0.94761,-0.75474 -2.09135,-0.93656 -3.19773,0.34079 l -3.36276,3.60154 c -0.57174,0.48928 -1.18948,0.98719 -1.90097,0.99114 l -0.0474,13.7634 c 0.7663,0.11282 1.60951,-0.1787 2.36018,-0.94473 l 9.9543,-10.65894 c 0.3143,-0.60921 0.56683,-1.09626 0.60297,-1.62576 z"
       id="path257" />
    <text
       xml:space="preserve"
       style="font-style:normal;font-variant:normal;font-weight:normal;font-stretch:normal;font-size:1.43119037px;line-height:1.25;font-family:Calibri;-inkscape-font-specification:Calibri;letter-spacing:0px;word-spacing:0px;fill:#373e48;fill-opacity:1;stroke:none;stroke-width:0.04666926"
       x="1374.6589"
       y="287.4928"
       id="text261"
       transform="matrix(0.66729601,0,-0.01445631,1.4985853,0,0)"
       inkscape:export-xdpi="225.78999"
       inkscape:export-ydpi="225.78999"><tspan
         sodipodi:role="line"
         id="tspan259"
         x="1374.6589"
         y="287.4928"
         style="font-style:normal;font-variant:normal;font-weight:bold;font-stretch:normal;font-family:'Hiragino Kaku Gothic StdN';-inkscape-font-specification:'Hiragino Kaku Gothic StdN Bold';fill:#373e48;stroke-width:0.04666926">Laboratório de Engenharia  de Software</tspan></text>
  </g>
</svg>
